<svg xmlns="http://www.w3.org/2000/svg" height="40" viewBox="0 -960 960 960" width="40"><path d="M479.853-784.334q-36.52 0-62.519-26.447-26-26.446-26-62.659 0-36.212 25.814-62.386T479.481-962Q516-962 542-935.879t26 62.333q0 36.213-25.814 62.712-25.814 26.5-62.333 26.5ZM355.334-184.667v-456q-61.667-5.667-122.5-15-60.834-9.334-119.5-24.334l24.333-91.332q81.667 21 169.787 30.833 88.121 9.833 172.167 9.833t173.046-9.833q88.999-9.833 171.666-30.833l23.333 91.332q-59.333 15-120.333 24.334-61 9.333-122 14.684v456.316H512v-226.667h-64v226.667h-92.666ZM305.749 1q-19.632 0-34.691-14.678Q256-28.356 256-48.287q0-19.93 14.977-34.988 14.976-15.058 34.608-15.058 19.632 0 34.19 15.324 14.558 15.325 14.558 35.471 0 19.721-14.476 34.13Q325.38 1 305.749 1Zm175 0q-19.632 0-33.691-14.678Q433-28.356 433-48.287q0-19.93 13.977-34.988 13.976-15.058 33.608-15.058 19.632 0 34.19 15.324 14.558 15.325 14.558 35.471 0 19.721-14.476 34.13Q500.38 1 480.749 1Zm177 0q-19.632 0-34.191-14.678Q609-28.356 609-48.287q0-19.93 14.477-34.988 14.476-15.058 34.108-15.058 19.632 0 34.19 15.324 14.558 15.325 14.558 35.471 0 19.721-14.476 34.13Q677.38 1 657.749 1Z"/></svg>