<svg xmlns="http://www.w3.org/2000/svg" height="40" viewBox="0 -960 960 960" width="40"><path d="m437.667-380.334 244.666-245.333L607-701.333l-169.556 170-84.777-84L277.334-541l160.333 160.666Zm-425 303.667v-81h934.666v81H12.667ZM156.666-211q-43.824 0-74.912-31.088-31.087-31.087-31.087-74.911V-764q0-44.1 31.087-75.383 31.088-31.283 74.912-31.283h646.668q44.099 0 75.382 31.283Q910-808.1 910-764v447.001q0 43.824-31.284 74.911Q847.433-211 803.334-211H156.666Zm0-105.999h646.668V-764H156.666v447.001Zm0 0V-764v447.001Z"/></svg>