<svg xmlns="http://www.w3.org/2000/svg" height="40" viewBox="0 -960 960 960" width="40"><path d="m356.667-50.667-20.333-135.667q-10.334-3.333-22.662-10.56-12.329-7.228-21.006-14.107l-126.999 56.667L41.001-374.666l112.666-83.11q-.666-3.816-.5-10.757.167-6.941.167-12.3 0-4.608-.167-10.351-.166-5.742.5-11.483L41.001-587l124.666-217.999 128.333 56q7.886-5.455 20.443-12.561Q327-768.666 336.667-772l20-138.333h247.332l19.334 137.667q11.333 3.333 23.667 10.667 12.333 7.333 21 13.333l127.667-56.333L919.666-587l-114.667 82.333q.667 5.555 1.667 12.667 1 7.111 1 12t-1.167 11.667q-1.166 6.778-1.833 11.667l114.667 82-126 220.332-126.666-56.667q-8.334 6.334-21 14.167Q633-189 624.333-186.667l-20.334 136H356.667ZM447-156.666h65.575L527.5-265.333q34.167-9 64.187-25.333 30.02-16.334 53.768-43l102.879 45 30-56.001-89.667-65.666Q694-427.424 697-444.815q3-17.39 3-35.287 0-17.898-3-35.565-3-17.666-7.333-33.666l90-66.334-31-56-102.818 45.333Q623-654 592.82-672.628q-30.179-18.629-65.755-23.039l-13.398-108H446l-12.333 107.333q-35 7.334-66.167 25.167-31.167 17.833-54.834 43.833l-100.811-44.333-30.855 56 88.333 64.334Q264-533.667 261.5-516.167q-2.5 17.5-2.5 36.359 0 18.475 2.5 36.141 2.5 17.667 7.833 34l-88.333 65 30.666 56.001 101-45q25 26.666 55.834 44.5 30.833 17.833 65.167 24.833L447-156.666Zm31.667-188.668q56.023 0 95.511-39.46 39.488-39.46 39.488-95.445 0-55.027-39.488-95.061-39.488-40.033-95.511-40.033-57 0-96 39.939t-39 94.966q0 55.985 39 95.54 39 39.554 96 39.554Zm2-134.666Z"/></svg>